<mxfile host="app.diagrams.net" modified="2023-07-26T17:41:02.300Z" agent="Mozilla/5.0 (Windows NT 10.0; Win64; x64) AppleWebKit/537.36 (KHTML, like Gecko) Chrome/114.0.0.0 Safari/537.36" etag="d8M0DgH0HVKEoJlCzhrH" version="21.6.5" type="github">
  <diagram id="C5RBs43oDa-KdzZeNtuy" name="Page-1">
    <mxGraphModel dx="1434" dy="764" grid="1" gridSize="10" guides="1" tooltips="1" connect="1" arrows="1" fold="1" page="1" pageScale="1" pageWidth="827" pageHeight="1169" math="0" shadow="0">
      <root>
        <mxCell id="WIyWlLk6GJQsqaUBKTNV-0" />
        <mxCell id="WIyWlLk6GJQsqaUBKTNV-1" parent="WIyWlLk6GJQsqaUBKTNV-0" />
        <mxCell id="WIyWlLk6GJQsqaUBKTNV-3" value="......" style="rounded=1;whiteSpace=wrap;html=1;fontSize=12;glass=0;strokeWidth=1;shadow=0;" parent="WIyWlLk6GJQsqaUBKTNV-1" vertex="1">
          <mxGeometry x="338" y="190" width="170" height="100" as="geometry" />
        </mxCell>
        <mxCell id="WIyWlLk6GJQsqaUBKTNV-7" value=".........." style="rounded=1;whiteSpace=wrap;html=1;fontSize=12;glass=0;strokeWidth=1;shadow=0;" parent="WIyWlLk6GJQsqaUBKTNV-1" vertex="1">
          <mxGeometry x="338" y="590" width="170" height="100" as="geometry" />
        </mxCell>
        <mxCell id="s_Kfms0bFwpJneywXEm4-2" style="edgeStyle=orthogonalEdgeStyle;rounded=0;orthogonalLoop=1;jettySize=auto;html=1;exitX=0.5;exitY=1;exitDx=0;exitDy=0;" edge="1" parent="WIyWlLk6GJQsqaUBKTNV-1" source="WIyWlLk6GJQsqaUBKTNV-3" target="WIyWlLk6GJQsqaUBKTNV-3">
          <mxGeometry relative="1" as="geometry" />
        </mxCell>
        <mxCell id="WIyWlLk6GJQsqaUBKTNV-12" value="......." style="rounded=1;whiteSpace=wrap;html=1;fontSize=12;glass=0;strokeWidth=1;shadow=0;" parent="WIyWlLk6GJQsqaUBKTNV-1" vertex="1">
          <mxGeometry x="338" y="390" width="167" height="100" as="geometry" />
        </mxCell>
        <mxCell id="s_Kfms0bFwpJneywXEm4-15" value="&lt;b&gt;Usuario&lt;/b&gt;" style="rounded=1;whiteSpace=wrap;html=1;fontSize=12;glass=0;strokeWidth=1;shadow=0;" vertex="1" parent="WIyWlLk6GJQsqaUBKTNV-1">
          <mxGeometry x="334" y="50" width="170" height="50" as="geometry" />
        </mxCell>
        <mxCell id="s_Kfms0bFwpJneywXEm4-24" value="&lt;font style=&quot;font-size: 16px;&quot;&gt;interactúa&lt;/font&gt;" style="text;strokeColor=none;align=center;fillColor=none;html=1;verticalAlign=middle;whiteSpace=wrap;rounded=0;rotation=1;fontStyle=1;fontFamily=Helvetica;" vertex="1" parent="WIyWlLk6GJQsqaUBKTNV-1">
          <mxGeometry x="334" y="120" width="60" height="30" as="geometry" />
        </mxCell>
        <mxCell id="s_Kfms0bFwpJneywXEm4-25" value="" style="endArrow=classic;html=1;rounded=0;exitX=0.671;exitY=1.02;exitDx=0;exitDy=0;exitPerimeter=0;" edge="1" parent="WIyWlLk6GJQsqaUBKTNV-1">
          <mxGeometry width="50" height="50" relative="1" as="geometry">
            <mxPoint x="405.06999999999994" y="101" as="sourcePoint" />
            <mxPoint x="405" y="190" as="targetPoint" />
            <Array as="points">
              <mxPoint x="405" y="150" />
            </Array>
          </mxGeometry>
        </mxCell>
        <mxCell id="s_Kfms0bFwpJneywXEm4-26" value="" style="endArrow=classic;html=1;rounded=0;" edge="1" parent="WIyWlLk6GJQsqaUBKTNV-1">
          <mxGeometry width="50" height="50" relative="1" as="geometry">
            <mxPoint x="445" y="190" as="sourcePoint" />
            <mxPoint x="445" y="100" as="targetPoint" />
          </mxGeometry>
        </mxCell>
        <mxCell id="s_Kfms0bFwpJneywXEm4-28" value="" style="endArrow=classic;html=1;rounded=0;entryX=0.641;entryY=1.02;entryDx=0;entryDy=0;entryPerimeter=0;exitX=0.641;exitY=0;exitDx=0;exitDy=0;exitPerimeter=0;" edge="1" parent="WIyWlLk6GJQsqaUBKTNV-1" source="WIyWlLk6GJQsqaUBKTNV-12" target="WIyWlLk6GJQsqaUBKTNV-3">
          <mxGeometry width="50" height="50" relative="1" as="geometry">
            <mxPoint x="435" y="370" as="sourcePoint" />
            <mxPoint x="485" y="320" as="targetPoint" />
          </mxGeometry>
        </mxCell>
        <mxCell id="s_Kfms0bFwpJneywXEm4-29" value="" style="endArrow=classic;html=1;rounded=0;" edge="1" parent="WIyWlLk6GJQsqaUBKTNV-1">
          <mxGeometry width="50" height="50" relative="1" as="geometry">
            <mxPoint x="405" y="290" as="sourcePoint" />
            <mxPoint x="405" y="390" as="targetPoint" />
          </mxGeometry>
        </mxCell>
        <mxCell id="s_Kfms0bFwpJneywXEm4-31" value="" style="endArrow=classic;html=1;rounded=0;" edge="1" parent="WIyWlLk6GJQsqaUBKTNV-1">
          <mxGeometry width="50" height="50" relative="1" as="geometry">
            <mxPoint x="405" y="490" as="sourcePoint" />
            <mxPoint x="405" y="590" as="targetPoint" />
          </mxGeometry>
        </mxCell>
        <mxCell id="s_Kfms0bFwpJneywXEm4-32" value="" style="endArrow=classic;html=1;rounded=0;entryX=0.641;entryY=1.02;entryDx=0;entryDy=0;entryPerimeter=0;exitX=0.641;exitY=0;exitDx=0;exitDy=0;exitPerimeter=0;" edge="1" parent="WIyWlLk6GJQsqaUBKTNV-1">
          <mxGeometry width="50" height="50" relative="1" as="geometry">
            <mxPoint x="445" y="590" as="sourcePoint" />
            <mxPoint x="445" y="492" as="targetPoint" />
          </mxGeometry>
        </mxCell>
        <mxCell id="s_Kfms0bFwpJneywXEm4-33" value="&lt;font style=&quot;font-size: 14px;&quot;&gt;Envía Acción&lt;/font&gt;" style="text;strokeColor=none;align=center;fillColor=none;html=1;verticalAlign=middle;whiteSpace=wrap;rounded=0;rotation=0;fontStyle=1;fontFamily=Helvetica;fontSize=14;" vertex="1" parent="WIyWlLk6GJQsqaUBKTNV-1">
          <mxGeometry x="325" y="320" width="60" height="30" as="geometry" />
        </mxCell>
        <mxCell id="s_Kfms0bFwpJneywXEm4-34" value="Solicita Cambios" style="text;strokeColor=none;align=center;fillColor=none;html=1;verticalAlign=middle;whiteSpace=wrap;rounded=0;rotation=0;fontStyle=1;fontFamily=Helvetica;fontSize=14;" vertex="1" parent="WIyWlLk6GJQsqaUBKTNV-1">
          <mxGeometry x="310" y="507.5" width="90" height="65" as="geometry" />
        </mxCell>
        <mxCell id="s_Kfms0bFwpJneywXEm4-35" value="&lt;font style=&quot;font-size: 14px;&quot;&gt;Notifica&lt;/font&gt;" style="text;strokeColor=none;align=center;fillColor=none;html=1;verticalAlign=middle;whiteSpace=wrap;rounded=0;rotation=0;fontStyle=1;fontFamily=Helvetica;fontSize=14;" vertex="1" parent="WIyWlLk6GJQsqaUBKTNV-1">
          <mxGeometry x="455" y="507.5" width="90" height="65" as="geometry" />
        </mxCell>
        <mxCell id="s_Kfms0bFwpJneywXEm4-36" value="&lt;font style=&quot;font-size: 14px;&quot;&gt;Actualiza&lt;/font&gt;" style="text;strokeColor=none;align=center;fillColor=none;html=1;verticalAlign=middle;whiteSpace=wrap;rounded=0;rotation=0;fontStyle=1;fontFamily=Helvetica;fontSize=14;" vertex="1" parent="WIyWlLk6GJQsqaUBKTNV-1">
          <mxGeometry x="465" y="302.5" width="90" height="65" as="geometry" />
        </mxCell>
        <mxCell id="s_Kfms0bFwpJneywXEm4-37" value="&lt;font style=&quot;font-size: 14px;&quot;&gt;Devuelve información&lt;/font&gt;" style="text;strokeColor=none;align=center;fillColor=none;html=1;verticalAlign=middle;whiteSpace=wrap;rounded=0;rotation=0;fontStyle=1;fontFamily=Helvetica;fontSize=14;" vertex="1" parent="WIyWlLk6GJQsqaUBKTNV-1">
          <mxGeometry x="465" y="110" width="90" height="65" as="geometry" />
        </mxCell>
        <mxCell id="s_Kfms0bFwpJneywXEm4-38" value="&lt;span style=&quot;font-size: 14px;&quot;&gt;Controlador&lt;/span&gt;" style="text;strokeColor=none;align=center;fillColor=none;html=1;verticalAlign=middle;whiteSpace=wrap;rounded=0;rotation=1;fontStyle=1;fontFamily=Helvetica;" vertex="1" parent="WIyWlLk6GJQsqaUBKTNV-1">
          <mxGeometry x="389" y="400" width="60" height="30" as="geometry" />
        </mxCell>
        <mxCell id="s_Kfms0bFwpJneywXEm4-39" value="&lt;span style=&quot;font-size: 14px;&quot;&gt;Vista&lt;/span&gt;" style="text;strokeColor=none;align=center;fillColor=none;html=1;verticalAlign=middle;whiteSpace=wrap;rounded=0;rotation=1;fontStyle=1;fontFamily=Helvetica;" vertex="1" parent="WIyWlLk6GJQsqaUBKTNV-1">
          <mxGeometry x="389" y="200" width="60" height="30" as="geometry" />
        </mxCell>
        <mxCell id="s_Kfms0bFwpJneywXEm4-40" value="&lt;font style=&quot;font-size: 14px;&quot;&gt;Modelo&lt;/font&gt;" style="text;strokeColor=none;align=center;fillColor=none;html=1;verticalAlign=middle;whiteSpace=wrap;rounded=0;rotation=1;fontStyle=1;fontFamily=Helvetica;" vertex="1" parent="WIyWlLk6GJQsqaUBKTNV-1">
          <mxGeometry x="389" y="600" width="60" height="30" as="geometry" />
        </mxCell>
        <mxCell id="s_Kfms0bFwpJneywXEm4-43" value="&lt;span style=&quot;font-size: 18px;&quot;&gt;MVC&lt;/span&gt;" style="text;strokeColor=none;align=center;fillColor=none;html=1;verticalAlign=middle;whiteSpace=wrap;rounded=0;rotation=1;fontStyle=1;fontFamily=Helvetica;fontSize=18;" vertex="1" parent="WIyWlLk6GJQsqaUBKTNV-1">
          <mxGeometry x="370.5" y="10.39" width="105" height="30" as="geometry" />
        </mxCell>
      </root>
    </mxGraphModel>
  </diagram>
</mxfile>
